PathFileType	4	(X/Y/Z)	/Users/niels/Desktop/University/Third Semester/Perception and Action/Exam/Gymnastics Motion Tracking/Code for Gym Tracking/Analyzed Data/Webcam_Backflip/id2_2_trajectory_Sports2D/id2_2_trajectory_Sports2D_px_person00.trc
DataRate	CameraRate	NumFrames	NumMarkers	Units	OrigDataRate	OrigDataStartFrame	OrigNumFrames
29.714285714285715	29.714285714285715	8	22	m	29.714285714285715	52	105
Frame#	Time	Hip			RHip			RKnee			RAnkle			RBigToe			RSmallToe			RHeel			LHip			LKnee			LAnkle			LBigToe			LSmallToe			LHeel			Neck			Head			Nose			RShoulder			RElbow			RWrist			LShoulder			LElbow			LWrist		
		X1	Y1	Z1	X2	Y2	Z2	X3	Y3	Z3	X4	Y4	Z4	X5	Y5	Z5	X6	Y6	Z6	X7	Y7	Z7	X8	Y8	Z8	X9	Y9	Z9	X10	Y10	Z10	X11	Y11	Z11	X12	Y12	Z12	X13	Y13	Z13	X14	Y14	Z14	X15	Y15	Z15	X16	Y16	Z16	X17	Y17	Z17	X18	Y18	Z18	X19	Y19	Z19	X20	Y20	Z20	X21	Y21	Z21	X22	Y22	Z22
52	1.75	0.923961690838438	-0.5569072789950273	0.0	0.9239396288843256	-0.5512785344507924	0.0	0.9503184133560573	-0.6732678266691401	0.0	0.9305751885651602	-0.804855229129726	0.0	0.9760496739983343	-0.8401968360102435	0.0	0.964962358014992	-0.8419883294120905	0.0	0.9192867323469348	-0.8229738900129671	0.0	0.9313544944050812	-0.5504800830452145	0.0	0.9474109265721747	-0.6736912530165017	0.0	0.9316459208856933	-0.7983656900658114	0.0	0.9737497312822913	-0.8306829523521475	0.0	0.9662149129732425	-0.8251444283479469	0.0	0.9181722002900172	-0.8123590462195154	0.0	0.957378515418064	-0.38438646311465735	0.0	1.0188865175711403	-0.3149324057010261	0.0	1.0111286329870228	-0.3635641792682746	0.0	0.9436100554134322	-0.39120589514381177	0.0	0.862077887878498	-0.40302346801590655	0.0	0.7894483255187532	-0.4144446626320016	0.0	0.9441489760912123	-0.3931976083458267	0.0	0.8736034818986482	-0.4051526020810818	0.0	0.8129357651855263	-0.42272785073956753	0.0
53	1.783653846153846	0.9209470643733628	-0.5579453165796177	0.0	0.9206868952840742	-0.5519736280442469	0.0	0.9529889101133825	-0.6728790562764578	0.0	0.9305741590753493	-0.8036307686014899	0.0	0.9756697855377838	-0.839303821761669	0.0	0.9646156344964217	-0.8413285253244109	0.0	0.9192888881138241	-0.8218470482279435	0.0	0.9288164040626826	-0.5510497388799988	0.0	0.9500329427780975	-0.6729406558128821	0.0	0.9318027978794506	-0.7967286869883498	0.0	0.9742113425703	-0.8295102103151238	0.0	0.9659766740045864	-0.8239319666607919	0.0	0.9177907496344961	-0.8110603285379968	0.0	0.9578173429434405	-0.38681277792039626	0.0	1.020308303835649	-0.31840017158899825	0.0	1.0120106017168207	-0.36661058304719707	0.0	0.9447105314139472	-0.39346446502251753	0.0	0.8611027500356081	-0.40356620360897955	0.0	0.7857458772469277	-0.4138777071692949	0.0	0.9444535860631249	-0.39522251219915744	0.0	0.8711230284231692	-0.4055929382731147	0.0	0.8070845614283916	-0.4213299142613836	0.0
54	1.8173076923076923	0.917333044481021	-0.5623978553454607	0.0	0.9165873153727989	-0.5562629267855995	0.0	0.9565399091446616	-0.675298450243718	0.0	0.9293946326923873	-0.8043195393449504	0.0	0.974712140682819	-0.8386620490400333	0.0	0.963431235845131	-0.8410421502900353	0.0	0.9176577119460483	-0.8224623244547659	0.0	0.9260104106939165	-0.5551091340346646	0.0	0.9535905794911627	-0.6747736880310594	0.0	0.9311827137280766	-0.7967951854595919	0.0	0.9744978778563064	-0.8291956211677898	0.0	0.9661210429352581	-0.8237195404275435	0.0	0.9165470782492957	-0.8117562357908957	0.0	0.9588598931310972	-0.39347575167194104	0.0	1.021374540052946	-0.3260401626728642	0.0	1.012977969428923	-0.37367672891832454	0.0	0.9458943112327413	-0.4006653210719511	0.0	0.8616482977841082	-0.413219051880908	0.0	0.7852031057921545	-0.42738067344451985	0.0	0.9460820182075814	-0.4023224851349212	0.0	0.869933135544596	-0.4152875989035808	0.0	0.8040925101181705	-0.4331318335708483	0.0
55	1.8509615384615383	0.9131956574683939	-0.5705631404582542	0.0	0.9118791536683754	-0.5643860708189445	0.0	0.9608935961319047	-0.6804581578488855	0.0	0.927399777986215	-0.807105383443834	0.0	0.9735283881813959	-0.8387020362539602	0.0	0.9618478057929775	-0.8415444022689511	0.0	0.914931214638468	-0.8249553060247606	0.0	0.922766050313685	-0.5629032123246986	0.0	0.9579971906702194	-0.6791042268909535	0.0	0.9300815883257739	-0.7987368282498073	0.0	0.9747820071377084	-0.8302280807257121	0.0	0.966888437340256	-0.8249404680691341	0.0	0.9147865082266734	-0.8144522205672015	0.0	0.9603525583921438	-0.4043063357201108	0.0	1.0216115009473574	-0.3377185888263453	0.0	1.0138198061944514	-0.38445638020405004	0.0	0.9469552830970196	-0.41301293674607864	0.0	0.8642439693401073	-0.4325779543066212	0.0	0.7898227682396537	-0.45558598943303513	0.0	0.9483145259279213	-0.4144029648142659	0.0	0.8709659110692887	-0.43472955539453295	0.0	0.8065076266193381	-0.4588650536736878	0.0
56	1.8846153846153846	0.9087643886191941	-0.5828531865509855	0.0	0.9070016166294371	-0.5767707388685084	0.0	0.9656740968870308	-0.6885749325926226	0.0	0.9251026769460392	-0.8126561556043291	0.0	0.9724214913266469	-0.8406461330827518	0.0	0.9602740037589601	-0.8440270307095897	0.0	0.911947061895969	-0.8299381121229757	0.0	0.9189707530232382	-0.5748722269904212	0.0	0.9629158726260441	-0.6862271145128428	0.0	0.9289757314777496	-0.8032026895944155	0.0	0.9752941997223353	-0.8336389863129424	0.0	0.9683858142795235	-0.8285508736726399	0.0	0.9130865377825635	-0.819494697786012	0.0	0.9617580353226158	-0.41912686208666083	0.0	1.0204211896523296	-0.35302490464540304	0.0	1.014042131600681	-0.39861117583914923	0.0	0.9475963801936661	-0.43041208328423597	0.0	0.8696662111582161	-0.46105037865572307	0.0	0.8019807025579445	-0.49683915884548563	0.0	0.95002246013685	-0.4310683010890328	0.0	0.8752646602506268	-0.46315691402419823	0.0	0.8170418399202758	-0.4969750007355046	0.0
57	1.9182692307692306	0.9043918851286517	-0.5995154791535112	0.0	0.9025140513611511	-0.5938101624327028	0.0	0.970267868190812	-0.7001914004783361	0.0	0.9230145288855252	-0.8218833386862308	0.0	0.9714906824220406	-0.8462356517852521	0.0	0.9588475116847235	-0.8501015631996848	0.0	0.9094239968968313	-0.8383035454247987	0.0	0.9146273548448969	-0.5914199096573876	0.0	0.9677543253307188	-0.6968887769802233	0.0	0.9282344784179598	-0.8112698204600954	0.0	0.9761631916337565	-0.8407132199908861	0.0	0.970332907982369	-0.8358161660761163	0.0	0.9119202843887465	-0.827590834720058	0.0	0.9621956590996547	-0.4376081753007874	0.0	1.0171289519328168	-0.3712197457746114	0.0	1.0129072146558586	-0.415752721580698	0.0	0.9474003349154823	-0.4522924743124405	0.0	0.8788270325051829	-0.496588708795269	0.0	0.8238172225418332	-0.5466788638847044	0.0	0.9501830880984222	-0.45171736783063327	0.0	0.8837531949155061	-0.49824735631979394	0.0	0.8378125915509395	-0.5431352125504407	0.0
58	1.9519230769230769	0.9004816954959025	-0.6202556050184644	0.0	0.8989174899737034	-0.6153414841382077	0.0	0.9739560589062409	-0.715997568579175	0.0	0.9215205113828417	-0.8355798140243494	0.0	0.9706121707891521	-0.8571360459965817	0.0	0.9574614953337528	-0.861224521757124	0.0	0.907686029455155	-0.8509144120942631	0.0	0.9099486245641034	-0.6124400396647968	0.0	0.9717225503538741	-0.7119929979786364	0.0	0.9279155510054267	-0.8240852415570754	0.0	0.9772598161960316	-0.8525317251098135	0.0	0.9719734379531795	-0.847906663582839	0.0	0.9113059110045852	-0.8396661922758091	0.0	0.960732344235191	-0.4591132435936487	0.0	1.0110284588276943	-0.39122207021335903	0.0	1.0096234073725612	-0.4352134013603985	0.0	0.9459434334085757	-0.4775294910999237	0.0	0.8924710059476212	-0.5355662796060413	0.0	0.8563872740296559	-0.5978777818973599	0.0	0.9483275760957977	-0.4755161465610028	0.0	0.8969460471849285	-0.5361116706027551	0.0	0.8693296832467908	-0.5904865609402524	0.0
59	1.985576923076923	0.8974811748626711	-0.6439654393699527	0.0	0.8965577799448756	-0.6401739045148901	0.0	0.9760104879862247	-0.7363803214484631	0.0	0.9207578783026115	-0.8539827277423555	0.0	0.9695506651240934	-0.874058904953811	0.0	0.9559399514661797	-0.8780015756270578	0.0	0.9066757843930126	-0.8681185553011486	0.0	0.9054263145964915	-0.6368492824027437	0.0	0.9739411969541033	-0.7319961687761083	0.0	0.927715600156872	-0.8422026647172106	0.0	0.9780946257666777	-0.8694677011262137	0.0	0.9722497322056614	-0.8653206146620124	0.0	0.9107024828193029	-0.8563567590143463	0.0	0.9567722792831572	-0.48248989386434177	0.0	1.001532669729392	-0.4117482109654192	0.0	1.0036473675700044	-0.4558918853068001	0.0	0.9430167829408448	-0.5043992154205739	0.0	0.9106219030335692	-0.5729529770666798	0.0	0.898534541822461	-0.6412586250226954	0.0	0.9446836827494011	-0.5011236654297159	0.0	0.9146187882378102	-0.5717168654421105	0.0	0.9095749929067527	-0.630623622877931	0.0
